<svg xmlns="http://www.w3.org/2000/svg" xmlns:xlink="http://www.w3.org/1999/xlink" width="500" zoomAndPan="magnify" viewBox="0 0 375 374.999991" height="500" preserveAspectRatio="xMidYMid meet" version="1.0"><defs><g/></defs><g fill="#000000" fill-opacity="1"><g transform="translate(0.0000045, 217.711226)"><g><path d="M 8.359375 0 L 8.359375 -42.796875 C 8.359375 -43.671875 8.390625 -44.34375 8.453125 -44.8125 C 8.523438 -45.28125 8.757812 -45.648438 9.15625 -45.921875 C 9.5625 -46.191406 10.203125 -46.328125 11.078125 -46.328125 L 51.0625 -46.328125 L 51.0625 -41.890625 L 16.109375 -41.890625 L 16.109375 -26.484375 L 48.140625 -26.484375 L 48.140625 -22.046875 L 16.109375 -22.046875 L 16.109375 0 Z M 8.359375 0 "/></g></g></g><g fill="#000000" fill-opacity="1"><g transform="translate(54.274131, 217.711226)"><g><path d="M 29.8125 0.703125 C 25.78125 0.703125 22.21875 0.398438 19.125 -0.203125 C 16.039062 -0.804688 13.40625 -1.929688 11.21875 -3.578125 C 9.039062 -5.222656 7.378906 -7.625 6.234375 -10.78125 C 5.097656 -13.9375 4.53125 -18.097656 4.53125 -23.265625 C 4.53125 -28.503906 5.148438 -32.71875 6.390625 -35.90625 C 7.628906 -39.09375 9.390625 -41.488281 11.671875 -43.09375 C 13.960938 -44.707031 16.703125 -45.78125 19.890625 -46.3125 C 23.078125 -46.851562 26.648438 -47.125 30.609375 -47.125 C 34.578125 -47.125 38.101562 -46.835938 41.1875 -46.265625 C 44.269531 -45.703125 46.898438 -44.597656 49.078125 -42.953125 C 51.265625 -41.304688 52.929688 -38.90625 54.078125 -35.75 C 55.222656 -32.59375 55.796875 -28.429688 55.796875 -23.265625 C 55.796875 -17.960938 55.171875 -13.734375 53.921875 -10.578125 C 52.679688 -7.421875 50.9375 -5.019531 48.6875 -3.375 C 46.4375 -1.726562 43.71875 -0.632812 40.53125 -0.09375 C 37.34375 0.4375 33.769531 0.703125 29.8125 0.703125 Z M 30.109375 -3.625 C 32.929688 -3.625 35.445312 -3.875 37.65625 -4.375 C 39.875 -4.882812 41.738281 -5.804688 43.25 -7.140625 C 44.757812 -8.484375 45.898438 -10.445312 46.671875 -13.03125 C 47.441406 -15.625 47.828125 -19.035156 47.828125 -23.265625 C 47.828125 -27.421875 47.441406 -30.789062 46.671875 -33.375 C 45.898438 -35.96875 44.757812 -37.953125 43.25 -39.328125 C 41.738281 -40.703125 39.875 -41.625 37.65625 -42.09375 C 35.445312 -42.5625 32.929688 -42.796875 30.109375 -42.796875 C 27.222656 -42.796875 24.6875 -42.5625 22.5 -42.09375 C 20.320312 -41.625 18.492188 -40.703125 17.015625 -39.328125 C 15.535156 -37.953125 14.410156 -35.96875 13.640625 -33.375 C 12.867188 -30.789062 12.484375 -27.421875 12.484375 -23.265625 C 12.484375 -19.035156 12.867188 -15.625 13.640625 -13.03125 C 14.410156 -10.445312 15.535156 -8.484375 17.015625 -7.140625 C 18.492188 -5.804688 20.320312 -4.882812 22.5 -4.375 C 24.6875 -3.875 27.222656 -3.625 30.109375 -3.625 Z M 30.109375 -3.625 "/></g></g></g><g fill="#000000" fill-opacity="1"><g transform="translate(114.589925, 217.711226)"><g><path d="M 36.453125 -19.03125 C 36.453125 -19.03125 35.507812 -19.03125 33.625 -19.03125 C 31.75 -19.03125 29.234375 -19.03125 26.078125 -19.03125 C 22.921875 -19.03125 19.429688 -19 15.609375 -18.9375 L 15.609375 0 L 7.859375 0 L 7.859375 -41.09375 C 7.859375 -43.03125 8.273438 -44.367188 9.109375 -45.109375 C 9.953125 -45.847656 11.347656 -46.253906 13.296875 -46.328125 C 14.296875 -46.390625 15.617188 -46.421875 17.265625 -46.421875 C 18.910156 -46.421875 20.738281 -46.4375 22.75 -46.46875 C 24.769531 -46.507812 26.835938 -46.53125 28.953125 -46.53125 C 31.066406 -46.53125 33.113281 -46.53125 35.09375 -46.53125 C 37.070312 -46.53125 38.832031 -46.492188 40.375 -46.421875 C 41.925781 -46.359375 43.132812 -46.289062 44 -46.21875 C 47.5 -45.882812 50.050781 -44.726562 51.65625 -42.75 C 53.269531 -40.769531 54.078125 -37.832031 54.078125 -33.9375 C 54.078125 -30.84375 53.65625 -28.390625 52.8125 -26.578125 C 51.976562 -24.765625 50.722656 -23.425781 49.046875 -22.5625 C 48.835938 -22.351562 48.515625 -22.195312 48.078125 -22.09375 C 47.648438 -22 47.195312 -21.953125 46.71875 -21.953125 L 46.71875 -21.75 C 46.988281 -21.75 47.289062 -21.75 47.625 -21.75 C 47.96875 -21.75 48.238281 -21.75 48.4375 -21.75 C 50.988281 -21.28125 52.53125 -20.253906 53.0625 -18.671875 C 53.601562 -17.097656 53.875 -15.503906 53.875 -13.890625 L 53.875 -2.421875 C 53.875 -1.742188 53.941406 -1.1875 54.078125 -0.75 C 54.210938 -0.3125 54.3125 -0.0625 54.375 0 L 48.9375 0 C 48 0 47.257812 -0.164062 46.71875 -0.5 C 46.1875 -0.832031 45.921875 -1.640625 45.921875 -2.921875 L 45.921875 -13.59375 C 45.921875 -15.675781 45.46875 -17.101562 44.5625 -17.875 C 43.65625 -18.644531 42.0625 -19.03125 39.78125 -19.03125 Z M 15.609375 -23.265625 C 16.546875 -23.265625 18.019531 -23.242188 20.03125 -23.203125 C 22.050781 -23.171875 24.253906 -23.15625 26.640625 -23.15625 C 29.023438 -23.15625 31.222656 -23.15625 33.234375 -23.15625 C 35.242188 -23.15625 36.71875 -23.15625 37.65625 -23.15625 C 39.875 -23.15625 41.835938 -23.84375 43.546875 -25.21875 C 45.265625 -26.601562 46.125 -29.175781 46.125 -32.9375 C 46.125 -35.476562 45.632812 -37.503906 44.65625 -39.015625 C 43.6875 -40.523438 42.128906 -41.414062 39.984375 -41.6875 C 38.566406 -41.894531 36.816406 -42.015625 34.734375 -42.046875 C 32.660156 -42.078125 30.515625 -42.078125 28.296875 -42.046875 C 26.078125 -42.015625 24.023438 -41.976562 22.140625 -41.9375 C 20.265625 -41.90625 18.859375 -41.890625 17.921875 -41.890625 C 17.722656 -41.890625 17.285156 -41.769531 16.609375 -41.53125 C 15.941406 -41.300781 15.609375 -40.613281 15.609375 -39.46875 Z M 15.609375 -23.265625 "/></g></g></g><g fill="#000000" fill-opacity="1"><g transform="translate(174.704325, 217.711226)"><g><path d="M 8.359375 0 L 8.359375 -43.09375 C 8.359375 -44.300781 8.523438 -45.140625 8.859375 -45.609375 C 9.191406 -46.085938 9.929688 -46.328125 11.078125 -46.328125 L 51.0625 -46.328125 L 51.0625 -41.890625 L 16.109375 -41.890625 L 16.109375 -26.484375 L 48.140625 -26.484375 L 48.140625 -22.046875 L 16.109375 -22.046875 L 16.109375 -4.4375 L 51.0625 -4.4375 L 51.0625 0 Z M 8.359375 0 "/></g></g></g><g fill="#000000" fill-opacity="1"><g transform="translate(229.582633, 217.711226)"><g><path d="M 1.71875 0 L 15.109375 -39.578125 C 15.910156 -41.859375 17.015625 -43.617188 18.421875 -44.859375 C 19.835938 -46.097656 22.253906 -46.71875 25.671875 -46.71875 C 28.765625 -46.71875 31.050781 -46.144531 32.53125 -45 C 34.007812 -43.863281 35.179688 -42.054688 36.046875 -39.578125 L 49.75 0 L 41.390625 0 L 37.0625 -12.796875 L 11.890625 -12.796875 L 7.75 0 Z M 13.1875 -16.3125 L 35.65625 -16.3125 L 29 -36.5625 C 28.664062 -37.5625 28.226562 -38.445312 27.6875 -39.21875 C 27.15625 -39.988281 26.082031 -40.375 24.46875 -40.375 C 22.65625 -40.375 21.460938 -39.972656 20.890625 -39.171875 C 20.328125 -38.367188 19.910156 -37.5 19.640625 -36.5625 Z M 13.1875 -16.3125 "/></g></g></g><g fill="#000000" fill-opacity="1"><g transform="translate(281.339426, 217.711226)"><g><path d="M 5.234375 -7.046875 C 6.640625 -6.109375 8.46875 -5.421875 10.71875 -4.984375 C 12.96875 -4.546875 15.316406 -4.273438 17.765625 -4.171875 C 20.222656 -4.078125 22.359375 -4.03125 24.171875 -4.03125 C 24.835938 -4.03125 25.609375 -4.03125 26.484375 -4.03125 C 27.359375 -4.03125 28.128906 -4.0625 28.796875 -4.125 C 31.484375 -4.195312 33.832031 -4.515625 35.84375 -5.078125 C 37.863281 -5.648438 39.441406 -6.625 40.578125 -8 C 41.722656 -9.382812 42.296875 -11.347656 42.296875 -13.890625 C 42.296875 -16.984375 41.488281 -19 39.875 -19.9375 C 38.269531 -20.875 35.921875 -21.34375 32.828125 -21.34375 C 31.816406 -21.34375 30.738281 -21.34375 29.59375 -21.34375 C 28.457031 -21.34375 27.25 -21.34375 25.96875 -21.34375 C 24.695312 -21.34375 23.222656 -21.34375 21.546875 -21.34375 C 19.671875 -21.34375 17.757812 -21.425781 15.8125 -21.59375 C 13.863281 -21.769531 12.082031 -22.207031 10.46875 -22.90625 C 8.863281 -23.613281 7.585938 -24.722656 6.640625 -26.234375 C 5.703125 -27.742188 5.234375 -29.910156 5.234375 -32.734375 C 5.234375 -36.015625 5.820312 -38.59375 7 -40.46875 C 8.175781 -42.351562 9.835938 -43.734375 11.984375 -44.609375 C 14.128906 -45.484375 16.59375 -46.050781 19.375 -46.3125 C 22.164062 -46.582031 25.140625 -46.71875 28.296875 -46.71875 C 30.179688 -46.71875 32.3125 -46.6875 34.6875 -46.625 C 37.070312 -46.5625 39.320312 -46.394531 41.4375 -46.125 C 43.550781 -45.851562 45.210938 -45.382812 46.421875 -44.71875 C 47.492188 -44.582031 48.316406 -44.242188 48.890625 -43.703125 C 49.460938 -43.171875 49.75 -42.5 49.75 -41.6875 C 49.75 -41.414062 49.75 -41.097656 49.75 -40.734375 C 49.75 -40.367188 49.75 -40.015625 49.75 -39.671875 C 49.75 -39.335938 49.75 -39.101562 49.75 -38.96875 C 49.144531 -39.644531 48.132812 -40.179688 46.71875 -40.578125 C 45.3125 -40.984375 43.71875 -41.300781 41.9375 -41.53125 C 40.164062 -41.769531 38.4375 -41.9375 36.75 -42.03125 C 35.070312 -42.132812 33.695312 -42.1875 32.625 -42.1875 L 26.6875 -42.1875 C 24.269531 -42.1875 22.019531 -41.984375 19.9375 -41.578125 C 17.851562 -41.179688 16.191406 -40.363281 14.953125 -39.125 C 13.710938 -37.882812 13.09375 -35.921875 13.09375 -33.234375 C 13.09375 -31.148438 13.507812 -29.601562 14.34375 -28.59375 C 15.1875 -27.59375 16.378906 -26.941406 17.921875 -26.640625 C 19.460938 -26.335938 21.3125 -26.1875 23.46875 -26.1875 C 26.082031 -26.1875 28.394531 -26.1875 30.40625 -26.1875 C 32.425781 -26.1875 34.070312 -26.1875 35.34375 -26.1875 C 38.300781 -26.1875 40.921875 -25.929688 43.203125 -25.421875 C 45.484375 -24.921875 47.257812 -23.8125 48.53125 -22.09375 C 49.8125 -20.382812 50.453125 -17.71875 50.453125 -14.09375 C 50.453125 -10.539062 49.660156 -7.722656 48.078125 -5.640625 C 46.503906 -3.554688 44.359375 -2.078125 41.640625 -1.203125 C 38.921875 -0.335938 35.816406 0.195312 32.328125 0.40625 C 30.648438 0.46875 29.035156 0.515625 27.484375 0.546875 C 25.941406 0.585938 24.332031 0.570312 22.65625 0.5 C 21.113281 0.5 19.332031 0.429688 17.3125 0.296875 C 15.300781 0.160156 13.375 -0.0546875 11.53125 -0.359375 C 9.6875 -0.660156 8.175781 -1.128906 7 -1.765625 C 5.820312 -2.398438 5.234375 -3.253906 5.234375 -4.328125 Z M 5.234375 -7.046875 "/></g></g></g><g fill="#000000" fill-opacity="1"><g transform="translate(336.519824, 217.711226)"><g><path d="M 4.4375 3.828125 L 28.703125 -57.90625 L 34.03125 -57.90625 L 9.765625 3.828125 Z M 4.4375 3.828125 "/></g></g></g></svg>